<?xml version="1.0" encoding="UTF-8"?>
<svg width="100pt" height="100pt" version="1.1" viewBox="0 0 100 100" xmlns="http://www.w3.org/2000/svg">
 <path d="m76.273 27.328c-0.019532 0.007813-0.039063 0.011719-0.058594 0.019531-4.9844 0.93359-10.754 1.793-15.449 4.5078-4.6914 2.7109-8.1797 7.4844-8.2461 15.43v0.019532c-1.1836 2.1328-2.1562 4.6211-2.8945 7.5742-0.625-1.5078-1.3438-2.9062-2.1445-4.2109v-0.039063c0-8.1641-3.2422-12.73-7.832-15.27-4.5898-2.543-10.336-3.3164-15.766-4.8438-0.16016-0.042969-0.32422-0.058594-0.49219-0.039063-0.4375 0.054688-0.81641 0.33203-0.99609 0.73438-0.18359 0.40234-0.14062 0.87109 0.11328 1.2344 3.1562 4.5586 4.9297 9.5156 7.1836 13.52 1.125 2.0039 2.3828 3.7891 4.0938 5.0977 1.707 1.3086 3.8672 2.0859 6.4922 2.0859 1.6367 0 3.2539-0.28906 5.2148-0.94531 1.1758 1.9727 2.1445 4.2031 2.8945 6.75-2.9961 0.46094-5.707 2.1875-7.2617 4.9609-2.7617 0.12109-5.1367 0.89453-6.8906 2.1445-1.8984 1.3555-3.1289 3.2734-3.1289 5.3516 0 0.69531 0.56641 1.2617 1.2617 1.2617h35.266c0.69531 0 1.2617-0.56641 1.2617-1.2617 0-2.0781-1.2305-3.9961-3.1328-5.3516-1.75-1.25-4.125-2.0234-6.8867-2.1445-1.5977-2.8516-4.4219-4.6172-7.5156-5.0195 1.0898-6.625 3.125-10.801 5.8828-13.992 2.8594-3.3086 6.5898-5.6211 11.039-8.3242 0.51172-0.29688 0.74609-0.91016 0.56641-1.4688-0.17969-0.5625-0.72656-0.92578-1.3125-0.875-0.19531 0.023437-0.38672 0.089844-0.55078 0.19922-4.4062 2.6758-8.3633 5.082-11.531 8.6992 0.92188-4.5742 3.3477-7.25 6.5703-9.1133 3.3594-1.9414 7.6562-2.8398 11.867-3.6406-2.4141 4.168-3.9805 8.2461-5.707 11.297-1.0352 1.832-2.1172 3.2734-3.4648 4.25-1.3438 0.98047-2.9531 1.5547-5.2734 1.5547h-0.62891c-0.33594-0.003907-0.66016 0.125-0.90234 0.36328-0.23828 0.23438-0.375 0.55859-0.375 0.89844 0 0.33594 0.13672 0.66016 0.375 0.89453 0.24219 0.23828 0.56641 0.36719 0.90234 0.36328h0.62891c2.7539 0 4.9844-0.74219 6.75-2.0273 1.7695-1.2852 3.0664-3.0625 4.1914-5.0586 2.2578-3.9883 3.9375-8.9609 7.1055-13.637 0.27734-0.41406 0.28516-0.94922 0.019531-1.3711-0.26172-0.41797-0.74609-0.64453-1.2383-0.57812zm-50.027 6.375c4.5469 1.125 8.9375 2.0625 12.184 3.8594 3.1953 1.7695 5.4219 4.3711 6.1797 9.2305-2.832-3.2148-6.3242-5.7734-10.375-7.9922-0.21875-0.125-0.47266-0.17969-0.72656-0.15625-0.56641 0.035157-1.043 0.44531-1.1562 1.0039-0.11719 0.55469 0.15625 1.1211 0.66406 1.3789 4.5547 2.4922 8.2266 5.2695 11 8.9727-1.3906 0.41797-2.5781 0.62891-3.7383 0.62891-2.1562 0-3.6602-0.57812-4.957-1.5742-1.3008-0.99219-2.4023-2.4766-3.4453-4.3281-1.7031-3.0312-3.2734-6.9961-5.6289-11.023zm23.754 27.633c3.0234 0 5.7852 1.5 7.0469 4.2891 0.19922 0.45312 0.64453 0.74609 1.1406 0.75 2.6016 0 4.7109 0.72656 6.1211 1.7305 0.875 0.625 1.3516 1.3398 1.6719 2.0469h-31.961c0.32031-0.70703 0.79688-1.4219 1.6719-2.0469 1.4062-1.0039 3.5195-1.7305 6.1211-1.7305 0.49609-0.003906 0.94141-0.29688 1.1406-0.75 1.2617-2.7891 4.0234-4.2891 7.0469-4.2891z" fill="#fff"/>
</svg>
