<?xml version="1.0" encoding="UTF-8"?>
<svg width="100pt" height="100pt" version="1.1" viewBox="0 0 100 100" xmlns="http://www.w3.org/2000/svg">
 <g fill="#fff">
  <path d="m96.141 71.277c5.9844-10.852 4.1094-24.355-4.7266-33.188-5.2695-5.2734-12.281-8.1758-19.734-8.1758-2.0312 0-4.0273 0.22266-5.9688 0.64453-1.3594-2.1055-2.9414-4.0859-4.7578-5.8984-6.6992-6.7031-15.613-10.391-25.09-10.391-9.4766 0-18.387 3.6875-25.09 10.391-11.684 11.68-13.715 29.957-5.0156 43.867l-3.1133 12.359c-0.21484 0.85547 0.035157 1.7578 0.65625 2.3828 0.62109 0.625 1.5273 0.87109 2.3828 0.65625l12.824-3.2266c5.2812 2.9648 11.262 4.5273 17.363 4.5273 6.7227 0 13.152-1.8633 18.719-5.3359 4.8711 3.7852 10.816 5.8438 17.086 5.8438 5.1797 0 10.191-1.4102 14.57-4.0977l9.2852 2.3359c0.85156 0.21484 1.7578-0.035156 2.3789-0.65625s0.87109-1.5273 0.65625-2.3828zm-45.359 5.0508c-4.5039 2.5352-9.6016 3.8945-14.914 3.8945-5.5469 0-10.973-1.5039-15.695-4.3438-0.39453-0.23438-0.83984-0.35547-1.2891-0.35547-0.20312 0-0.41016 0.023437-0.60937 0.074218l-9.75 2.4531 2.3555-9.3555c0.17188-0.6875 0.046875-1.4141-0.34766-2.0039-8.0703-12.039-6.4805-28.227 3.7852-38.492 5.7578-5.7578 13.41-8.9258 21.551-8.9258 8.1406 0 15.797 3.1719 21.551 8.9258 1.2266 1.2305 2.332 2.5508 3.3203 3.9375 0.98438 1.3867 1.8516 2.8398 2.5859 4.3555 1.9766 4.082 3.0195 8.5898 3.0195 13.258 0 8.1406-3.1719 15.793-8.9258 21.551-0.78125 0.77734-1.5977 1.5078-2.4414 2.1875-1.3281 1.0703-2.7305 2.0156-4.1953 2.8398zm40.254-4.8125 1.6562 6.582-6.2734-1.5781c-0.6875-0.17578-1.418-0.046875-2.0078 0.34766-3.7656 2.5273-8.1719 3.8594-12.734 3.8594-4.6484 0-9.0859-1.3789-12.848-3.9414 0.73047-0.62109 1.4414-1.2656 2.1289-1.9492 6.7031-6.6992 10.395-15.613 10.395-25.09 0-5.1094-1.082-10.051-3.1172-14.57 1.1328-0.17188 2.2852-0.25781 3.4492-0.25781 6.1172 0 11.871 2.3828 16.195 6.7109 7.4531 7.457 8.8711 18.965 3.4414 27.988-0.34766 0.56641-0.44922 1.2539-0.28516 1.8984z"/>
  <path d="m35.074 60.066c-1.0234 0-1.8633-0.33984-2.5039-1.0039-0.625-0.65234-0.94531-1.5312-0.94531-2.6094l0.003906-6.2812c0-0.67188 0.019532-1.2031 0.058594-1.625 0.058594-0.62109 0.30469-1.1562 0.73438-1.5859 0.36719-0.36719 0.86719-0.66406 1.5352-0.90234 0.56641-0.20312 1.3438-0.39453 2.3711-0.59766 0.96484-0.19141 1.7383-0.48438 2.2852-0.86719 0.55078-0.38672 0.97656-0.80469 1.2539-1.2422 0.28516-0.44922 0.48437-0.92969 0.58984-1.4219 0.11328-0.53906 0.17188-1.0391 0.17188-1.4883 0-1.6094-0.48438-2.8281-1.4805-3.7344-1.0234-0.92969-2.3203-1.3789-3.9688-1.3789-1.2969 0-2.4297 0.27344-3.3633 0.8125-0.875 0.50781-1.5977 1.543-2.1406 3.082-0.33203 0.94531-0.73828 1.5859-1.2461 1.9492-0.50391 0.36328-1.1328 0.55078-1.8633 0.55078-0.89062 0-1.6875-0.32422-2.375-0.96094-0.71484-0.66016-1.0664-1.5742-1.0156-2.6445 0.039063-1.3867 0.44922-2.6914 1.2188-3.8633 0.73047-1.1133 1.6602-2.0977 2.7695-2.9219 1.1016-0.82031 2.3477-1.4609 3.7109-1.9023 1.3555-0.4375 2.75-0.66016 4.1445-0.66016 1.7773 0 3.4609 0.28125 5.0078 0.83984 1.5547 0.55859 2.9219 1.3398 4.0664 2.3203 1.1562 0.99609 2.0781 2.1875 2.7461 3.543 0.67969 1.375 1.0195 2.8984 1.0195 4.5273 0 3.25-0.96094 5.9219-2.8555 7.9414-1.6914 1.8008-3.8711 3.0586-6.4844 3.7461v4.7695c0 1.0781-0.32031 1.957-0.94531 2.6094-0.63672 0.66406-1.4766 1-2.5 1z"/>
  <path d="m35.074 72.68c-1.0508 0-1.9609-0.375-2.7109-1.125-0.75-0.74609-1.1289-1.6602-1.1289-2.7109s0.37891-1.9609 1.1289-2.7109c0.74609-0.74609 1.6602-1.1289 2.7109-1.1289s1.9609 0.38281 2.7109 1.1289c0.74609 0.74609 1.125 1.6602 1.125 2.7109s-0.37891 1.9648-1.1289 2.7109c-0.74609 0.74609-1.6562 1.125-2.707 1.125z"/>
 </g>
</svg>
